<svg version="1.1" id="Layer_1" xmlns="http://www.w3.org/2000/svg" xmlns:xlink="http://www.w3.org/1999/xlink" x="0px" y="0px"
	 width="100%" viewBox="0 0 1024 464" enable-background="new 0 0 1024 464" xml:space="preserve">
<path fill="#000000" opacity="1.000000" stroke="none" 
	d="
M459.855530,95.900192 
	C416.012482,124.428795 377.553345,158.745667 341.744202,196.174545 
	C333.913391,204.359573 326.224121,212.680466 318.515289,220.981171 
	C317.661530,221.900482 316.369415,222.633453 316.439911,224.585251 
	C322.675659,224.585251 328.926849,224.889267 335.139191,224.527100 
	C352.413879,223.520020 369.663879,222.087326 386.939514,221.099884 
	C407.718536,219.912155 428.511108,218.943588 449.305176,218.052750 
	C452.611847,217.911087 454.441528,216.433609 455.981781,213.782104 
	C471.042969,187.855087 486.205505,161.986633 500.602448,135.680099 
	C501.881866,133.342316 503.173309,131.008286 504.551453,128.728302 
	C505.587616,127.014053 506.801483,124.871414 509.154816,125.928062 
	C511.544006,127.000801 510.718536,129.301712 510.025391,131.198441 
	C506.649597,140.436172 502.732239,149.449097 498.473297,158.308151 
	C490.022308,175.887222 480.227081,192.743225 470.662598,209.722321 
	C469.451935,211.871506 468.060944,213.947952 467.555176,216.773026 
	C470.817596,217.778534 473.919434,216.757141 476.970490,216.874222 
	C479.964905,216.989136 483.012909,216.531464 485.959290,216.918961 
	C494.266144,218.011459 501.649628,216.721069 507.609100,210.213699 
	C508.784973,208.929749 510.634979,208.121017 512.319824,207.470627 
	C518.631226,205.034302 522.668457,207.828964 523.341919,214.559235 
	C523.923767,220.373077 521.660339,226.052322 522.585815,232.458145 
	C529.128357,231.308624 534.653381,227.242279 541.119263,227.292648 
	C541.868835,229.921585 540.252075,230.834167 538.856995,231.558701 
	C533.385681,234.400162 527.823364,237.071228 521.626892,237.969284 
	C516.741943,238.677246 514.048706,236.007431 512.913452,229.962006 
	C512.498535,227.753006 514.109192,224.552643 510.709717,223.527954 
	C507.448730,222.544998 505.093475,224.415298 502.758240,226.533371 
	C487.433258,240.433350 473.719910,255.914230 459.256042,270.657959 
	C450.158295,279.931793 441.093964,289.236694 430.748138,297.192596 
	C427.140472,299.966858 423.425354,301.678741 419.336975,299.110321 
	C415.473755,296.683350 415.882355,292.638214 416.799164,288.744446 
	C418.457214,281.702667 421.765564,275.346130 424.971741,268.938904 
	C425.764893,267.353821 427.152191,265.976532 427.064056,263.379669 
	C421.220276,263.195374 415.698517,265.142670 410.039429,265.691040 
	C403.230316,266.350800 396.421539,267.110718 389.727417,265.163574 
	C387.472717,264.507751 385.940826,265.306488 384.207764,266.440704 
	C370.736145,275.256958 355.796906,280.192169 340.027466,282.750397 
	C335.239594,283.527130 329.688110,284.338745 327.237274,278.869263 
	C324.797241,273.423859 329.010376,269.755737 332.812103,266.726654 
	C342.740906,258.815704 353.305206,251.864410 364.954285,246.684982 
	C368.627594,245.051758 372.482819,244.108627 376.426453,243.326218 
	C382.200134,242.180740 386.475677,244.642609 390.208862,248.531555 
	C391.434814,249.808685 392.885315,251.468765 391.404877,253.360153 
	C389.934662,255.238434 387.274597,255.378830 386.028046,253.931931 
	C380.093323,247.043442 374.505707,251.183914 368.681763,253.897171 
	C358.805542,258.498291 349.539917,264.008850 341.495819,271.426849 
	C340.397125,272.440002 339.368317,273.537109 338.388733,274.666107 
	C338.112732,274.984192 338.126770,275.553925 337.914673,276.363647 
	C342.518555,276.498810 346.545258,274.866516 350.608337,273.743225 
	C361.699646,270.676941 372.720734,267.405579 381.509033,259.306793 
	C383.364441,257.596954 385.881866,256.170471 388.378998,257.534271 
	C397.766418,262.661163 407.145416,258.997498 416.535278,257.844269 
	C417.190002,257.763824 417.831512,257.329956 418.465149,257.359619 
	C429.993896,257.899170 436.187073,251.388977 440.339905,241.516739 
	C442.560883,236.237030 445.776520,231.375717 448.533356,226.343597 
	C446.251160,224.627731 444.179749,225.143616 442.280914,225.256821 
	C407.059998,227.356369 371.766663,228.123001 336.588654,231.028656 
	C329.126221,231.645035 321.630707,232.210739 314.153839,232.170486 
	C309.744568,232.146759 306.521454,233.651550 303.557312,236.609344 
	C290.701385,249.437759 277.543457,261.969208 263.811615,273.840515 
	C236.174759,297.732819 207.837128,320.730682 174.337997,336.208496 
	C155.258118,345.024139 135.583282,351.485077 114.062592,349.250000 
	C100.013176,347.790863 87.437813,343.250488 78.221542,331.908417 
	C68.083321,319.431763 68.029877,301.970673 77.545982,288.806427 
	C86.949188,275.798431 99.902718,267.533752 114.026726,260.841156 
	C135.555649,250.639801 158.507965,245.192108 181.768112,240.614853 
	C203.682495,236.302429 225.821533,234.026672 247.960693,231.412247 
	C263.677185,229.556290 279.497345,229.061188 295.166779,226.879181 
	C298.233429,226.452148 300.345215,224.860336 302.320740,222.749725 
	C323.614624,199.999771 345.125732,177.461716 367.627075,155.890900 
	C378.446381,145.519043 389.874695,135.834061 401.012665,125.509003 
	C393.363373,128.641968 385.738678,131.836716 378.060638,134.897675 
	C334.585297,152.229736 290.775970,168.665405 245.871307,181.937469 
	C230.275543,186.546967 214.558487,191.230759 198.054031,191.555847 
	C194.160385,191.632553 189.888580,192.323639 187.192215,188.480621 
	C188.038742,186.727310 189.127594,186.775604 190.082642,186.828079 
	C207.415512,187.780289 223.684174,182.747025 239.959290,177.887726 
	C283.395752,164.918793 325.713654,148.796967 367.921173,132.362473 
	C396.100250,121.390289 423.058563,108.055519 448.386444,91.476311 
	C451.161713,89.659676 454.229858,88.280136 457.203796,86.780365 
	C459.952454,85.394196 462.992462,84.999336 464.911896,87.692329 
	C467.145721,90.826393 463.861267,92.320961 462.080078,94.104958 
	C461.495209,94.690742 460.787781,95.154205 459.855530,95.900192 
M251.626114,237.244293 
	C231.925323,239.101425 212.329544,241.713242 192.854156,245.243591 
	C167.567642,249.827332 142.631546,255.637665 119.378342,266.991669 
	C105.620956,273.709137 92.941872,281.958466 85.012962,295.665802 
	C76.269638,310.781097 81.240738,328.316254 96.416290,336.968475 
	C106.925888,342.960449 118.232597,343.854645 129.831268,342.024261 
	C149.218781,338.964783 166.763428,330.907410 183.491013,321.057770 
	C222.223511,298.251129 256.042999,269.244995 287.774567,237.659531 
	C288.719788,236.718689 290.347534,236.016098 289.843475,233.934433 
	C277.380096,235.030334 264.966827,236.121841 251.626114,237.244293 
M445.975281,269.475342 
	C460.867371,254.318832 475.234711,238.655258 491.524597,223.668152 
	C482.117188,222.984741 474.040314,224.446030 465.913208,224.518326 
	C463.808289,224.537048 461.947876,225.072266 460.834412,227.053711 
	C456.048950,235.569641 451.273651,244.091339 446.675476,252.288635 
	C447.468079,254.251633 449.769012,254.052963 449.780884,256.808502 
	C437.269012,260.420563 436.987854,273.170166 431.096375,282.118958 
	C431.473694,282.438324 431.850983,282.757690 432.228302,283.077057 
	C436.646240,278.712067 441.064148,274.347076 445.975281,269.475342 
z"/>
<path fill="#000000" opacity="1.000000" stroke="none" 
	d="
M812.755859,231.792419 
	C805.222290,235.024139 798.624756,239.340500 791.175659,241.882889 
	C785.056396,243.971405 781.519958,242.711044 778.362305,236.960007 
	C777.561157,235.500916 776.840515,233.997482 776.090576,232.510544 
	C771.423584,223.256577 763.065735,219.354309 753.001587,221.979584 
	C733.445679,227.080826 718.067139,237.938004 707.601807,255.408722 
	C705.882996,258.278046 704.202393,261.154938 701.459900,263.197510 
	C699.158020,264.911926 696.717041,265.736206 694.107544,263.880890 
	C691.315186,261.895538 692.565491,259.503876 693.590210,257.198120 
	C695.943909,251.901978 699.601807,247.281326 700.939758,241.418137 
	C702.106140,236.306839 701.724792,231.472885 700.003723,226.718231 
	C696.916931,218.190536 689.043457,214.930908 679.010315,217.801743 
	C663.894531,222.126938 650.702332,238.053925 647.789795,255.772964 
	C650.643921,252.463318 653.225281,249.300217 656.000305,246.317337 
	C657.595459,244.602707 659.642639,242.754150 662.081116,244.382126 
	C664.442505,245.958618 662.993164,248.336990 662.253174,250.275772 
	C660.255249,255.510559 656.743164,259.731995 652.884155,263.687683 
	C649.576538,267.078064 645.332153,268.917419 641.139404,266.745117 
	C636.790833,264.492096 636.813782,259.619507 637.319031,255.216309 
	C637.925720,249.930084 640.101013,245.055420 642.383057,239.244904 
	C635.212341,242.554596 629.001404,245.609924 622.636475,248.301041 
	C617.279236,250.566086 611.773254,252.482635 606.028748,253.629684 
	C596.247620,255.582733 592.301636,253.558731 588.581543,244.187607 
	C587.685669,241.930832 586.010193,242.544540 584.471924,242.370941 
	C582.920898,242.195847 581.359985,241.913773 580.999084,240.131699 
	C580.637573,238.346497 581.935913,237.075653 583.335083,236.726089 
	C595.421265,233.706650 602.051086,223.316925 611.177307,216.317230 
	C616.218323,212.450806 621.494446,208.971710 627.434509,206.649063 
	C629.430664,205.868561 631.559570,205.079712 633.656494,204.993378 
	C636.268982,204.885803 639.263245,205.084778 640.689758,207.789948 
	C642.161865,210.581451 640.490845,213.017593 638.695801,215.013733 
	C633.816284,220.439911 627.443909,223.800308 621.105713,227.131897 
	C616.393494,229.608795 611.576965,231.893021 606.757202,234.157288 
	C603.368713,235.749130 601.354675,238.578186 599.839600,241.755341 
	C599.104797,243.296204 597.932739,245.214233 599.398865,246.881149 
	C600.666016,248.321777 602.511292,247.619308 604.122375,247.319748 
	C611.375183,245.971207 618.160034,243.151901 624.923889,240.377213 
	C636.679749,235.554642 647.588562,229.358887 657.426025,221.117386 
	C664.218872,215.426559 672.158997,211.403381 681.203186,210.207260 
	C690.564514,208.969238 698.635315,211.951172 705.689941,217.919052 
	C710.493347,221.982574 710.655518,228.210876 712.580383,234.274185 
	C719.641663,229.657928 726.349915,225.111115 733.788757,221.843414 
	C743.174438,217.720474 752.723328,214.728897 763.197144,215.590775 
	C773.836304,216.466248 781.325684,221.940994 785.903564,231.218613 
	C787.665649,234.789795 789.259705,234.975998 792.370422,233.355270 
	C809.702637,224.325073 827.900574,217.442474 846.709167,212.243378 
	C854.553711,210.074951 862.553528,208.344177 870.581116,207.002411 
	C876.616516,205.993652 882.511414,207.188156 887.772583,210.694809 
	C890.062622,212.221161 891.832153,214.170303 892.950867,216.634827 
	C893.554382,217.964249 894.166321,219.603851 892.629456,220.734863 
	C891.302429,221.711517 889.827026,220.947021 889.055237,219.943497 
	C880.678833,209.051666 869.966553,213.160797 859.788391,215.598862 
	C843.737000,219.443771 828.341919,225.346558 812.755859,231.792419 
z"/>
<path fill="#000000" opacity="1.000000" stroke="none" 
	d="
M565.300415,244.249908 
	C569.925659,242.508133 572.937134,237.823822 578.236450,238.261978 
	C579.093384,241.484329 577.009277,242.754700 575.469727,244.071152 
	C564.153564,253.747375 551.161133,260.330048 536.954163,264.603394 
	C536.003540,264.889343 535.003723,265.041473 534.015503,265.167786 
	C524.611816,266.369629 522.496216,265.028229 520.009155,256.162048 
	C515.103699,257.607330 511.358551,261.926605 505.940979,261.959167 
	C505.403229,261.962402 504.861847,261.364777 504.294037,261.029419 
	C504.866791,258.176239 507.112396,257.008698 509.049316,256.050720 
	C523.209595,249.047211 533.725464,237.536087 545.263733,227.261459 
	C554.985229,218.604660 565.252136,210.634216 576.984680,204.800262 
	C580.256287,203.173492 583.622437,201.611572 587.434021,201.751755 
	C590.042053,201.847656 592.592224,202.464920 593.769043,204.995529 
	C594.949646,207.534195 593.797302,209.848099 592.097290,211.879410 
	C586.634094,218.407150 579.395630,222.635941 572.205811,226.800613 
	C563.418152,231.890793 554.406616,236.603882 545.397217,241.298233 
	C540.052368,244.083176 535.927795,248.025482 532.809998,253.104858 
	C531.760254,254.814957 530.729126,256.553894 531.934021,259.677979 
	C543.762573,256.390442 554.374023,250.414352 565.300415,244.249908 
z"/>
<path fill="#000000" opacity="1.000000" stroke="none" 
	d="
M921.554565,256.483368 
	C916.292969,254.004150 914.624390,250.650162 916.341125,246.675064 
	C917.866638,243.142654 921.715454,241.414032 925.385559,242.767517 
	C928.938232,244.077698 930.751892,246.784195 930.079102,250.496292 
	C929.294006,254.827850 926.474609,256.996796 921.554565,256.483368 
z"/>
</svg>